<svg width="32" height="32" fill="none" xmlns="http://www.w3.org/2000/svg"><defs><symbol id="logo_icon" viewBox="0 0 32 32"><path d="M26.427 2.667H5.573a2.907 2.907 0 0 0-2.907 2.906v20.854a2.907 2.907 0 0 0 2.907 2.906h20.854a2.907 2.907 0 0 0 2.906-2.906V5.573a2.907 2.907 0 0 0-2.906-2.906ZM9.334 2.667v26.666M22.666 2.667v26.666M2.667 16h26.666M2.667 9.333h6.666M2.667 22.667h6.666M22.666 22.667h6.667M22.666 9.333h6.667" stroke="#fff" stroke-width="2" stroke-linecap="round" stroke-linejoin="round"/></symbol><symbol id="search_icon" viewBox="0 0 32 32"><path stroke-linejoin="round" stroke-linecap="round" stroke-width="2.667" d="M14.667 25.333c5.891 0 10.667-4.776 10.667-10.667S20.558 3.999 14.667 3.999 4 8.775 4 14.666s4.776 10.667 10.667 10.667zM28 28.001l-5.8-5.8"/></symbol><symbol id="light_btn" viewBox="0 0 512 512" xml:space="preserve" fill="#000"><path class="st0" d="M90.734 210.977a81.707 81.707 0 0 0 57.922-24c14.781-14.734 24-35.359 24-57.906s-9.219-43.188-24-57.938c-14.75-14.781-35.375-24-57.922-23.984a81.707 81.707 0 0 0-57.922 24 81.732 81.732 0 0 0-23.984 57.922c-.016 22.547 9.203 43.156 23.984 57.906a81.72 81.72 0 0 0 57.922 24zM66.109 104.43c6.375-6.344 14.938-10.188 24.625-10.203 9.703.016 18.25 3.859 24.641 10.203 6.328 6.375 10.188 14.938 10.188 24.641 0 9.688-3.859 18.234-10.188 24.625-6.391 6.328-14.938 10.188-24.641 10.203-9.688-.016-18.25-3.875-24.625-10.203-6.344-6.391-10.188-14.938-10.203-24.625.016-9.704 3.86-18.266 10.203-24.641zM270.219 210.977a81.707 81.707 0 0 0 57.922-24c14.781-14.75 24-35.359 23.984-57.906a81.732 81.732 0 0 0-23.984-57.922 81.707 81.707 0 0 0-57.922-24c-22.531-.016-43.172 9.203-57.922 23.984a81.731 81.731 0 0 0-23.984 57.938 81.694 81.694 0 0 0 23.984 57.906c14.75 14.796 35.391 24.015 57.922 24zM245.594 104.43c6.375-6.344 14.938-10.188 24.625-10.203 9.688.016 18.25 3.859 24.625 10.203 6.344 6.375 10.188 14.938 10.203 24.641-.016 9.688-3.859 18.234-10.203 24.625-6.375 6.328-14.938 10.188-24.625 10.203-9.688-.016-18.25-3.875-24.625-10.203-6.344-6.391-10.188-14.938-10.203-24.625.015-9.704 3.859-18.266 10.203-24.641zM313.047 224.195H45.953c-12.625-.016-24.234 5.172-32.5 13.453A45.99 45.99 0 0 0 0 270.148v148.75c0 12.625 5.172 24.25 13.453 32.5 8.266 8.281 19.875 13.469 32.5 13.453h267.094c12.609.016 24.234-5.172 32.484-13.453a45.846 45.846 0 0 0 13.469-32.5v-148.75c.016-12.625-5.172-24.234-13.469-32.5-8.25-8.281-19.875-13.468-32.484-13.453zm4.766 194.703c-.031 1.391-.516 2.453-1.406 3.375-.922.891-1.984 1.375-3.359 1.391H45.953c-1.391-.016-2.438-.5-3.359-1.391-.891-.922-1.375-1.984-1.406-3.375v-148.75c.031-1.375.516-2.438 1.406-3.375.922-.875 1.969-1.375 3.359-1.391h267.094c1.375.016 2.438.516 3.359 1.391.891.938 1.375 2 1.406 3.375v148.75zM493.875 236.414c-5.828-3.516-12.531-5.359-19.125-5.359-6.063 0-12.063 1.484-17.609 4.422l-73.734 39.313v46.719l87.406-46.594v139.297l-87.406-46.672v46.734l73.734 39.297c5.547 2.953 11.547 4.422 17.609 4.422a37.453 37.453 0 0 0 19.188-5.297A37.416 37.416 0 0 0 512 420.68V268.367c0-13.125-6.875-25.25-18.125-31.953z"/></symbol><symbol id="night_btn" viewBox="0 0 512 512" xml:space="preserve" fill="#000"><path class="st0" d="M289.375 40.703c-40.906 0-76.25 23.781-93 58.266-16.75-34.484-52.109-58.266-93.016-58.266C46.266 40.703 0 86.969 0 144.063c0 57.078 46.266 103.328 103.359 103.328h186.016c57.094 0 103.359-46.25 103.359-103.328 0-57.094-46.265-103.36-103.359-103.36zM103.359 183.141c-21.594 0-39.094-17.516-39.094-39.078 0-21.594 17.5-39.094 39.094-39.094 21.563 0 39.063 17.5 39.063 39.094 0 21.562-17.5 39.078-39.063 39.078zm186.016 0c-21.578 0-39.063-17.516-39.063-39.078 0-21.594 17.484-39.094 39.063-39.094 21.594 0 39.094 17.5 39.094 39.094 0 21.562-17.5 39.078-39.094 39.078zM332.125 271H53.828c-11.094 0-20.063 8.969-20.063 20.047v160.188c0 11.078 8.969 20.063 20.063 20.063h278.297c11.094 0 20.063-8.984 20.063-20.063V291.047c0-11.078-8.969-20.047-20.063-20.047zM504.344 306.688a20.18 20.18 0 0 0-17.156-3.719l-97.844 23.844a20.07 20.07 0 0 0-15.328 19.5v47.484c0 9.25 6.328 17.297 15.328 19.484l97.844 23.859a20.176 20.176 0 0 0 17.156-3.719A20.116 20.116 0 0 0 512 417.64v-95.188a20.106 20.106 0 0 0-7.656-15.764z"/></symbol><symbol id="loader__icon" xmlns="http://www.w3.org/2000/svg" viewBox="0 0 243.6 205"><path class="st0" d="M132.7 190.5c-1.4 0-2.5-1.1-2.5-2.5s1.1-2.5 2.5-2.5c9.5 0 18.8-3.7 25.8-7 2.5-1.2 5.1-2.4 7.5-3.6 5.8-2.9 11.9-5.9 18.2-8 10.6-3.6 22-4.8 32.8-3.4 10.7 1.4 19.6 5.3 25.7 11.2 1 .9 1 2.5 0 3.5-.9 1-2.5 1-3.5 0-6.8-6.6-16.2-9-22.9-9.9-10.1-1.3-20.7-.2-30.6 3.1-6 2-11.9 4.9-17.6 7.8-2.5 1.2-5.1 2.5-7.6 3.7-7.4 3.6-17.3 7.6-27.8 7.6z"/><path class="film st0" d="M121.8 13.5c-49.2 0-89 39.8-89 89s39.8 89 89 89 89-39.8 89-89-39.8-89-89-89zm0 18.7c11 0 20 8.9 20 20 0 11-8.9 20-20 20s-20-8.9-20-20 9-20 20-20zM54.9 80.8C58.3 70.3 69.6 64.6 80.1 68c10.5 3.4 16.2 14.7 12.8 25.2-3.4 10.5-14.7 16.2-25.2 12.8-10.4-3.5-16.2-14.7-12.8-25.2zm53.5 74.2c-6.5 8.9-19 10.9-27.9 4.4-8.9-6.5-10.9-19-4.4-27.9 6.5-8.9 19-10.9 27.9-4.4 8.9 6.5 10.8 19 4.4 27.9zm13.4-42.1c-5.8 0-10.4-4.7-10.4-10.4 0-5.8 4.7-10.4 10.4-10.4 5.8 0 10.4 4.7 10.4 10.4 0 5.8-4.6 10.4-10.4 10.4zm41.3 46.5c-8.9 6.5-21.4 4.5-27.9-4.4s-4.5-21.4 4.4-27.9 21.4-4.5 27.9 4.4 4.6 21.4-4.4 27.9zm12.8-53.5c-10.5 3.4-21.8-2.3-25.2-12.8-3.4-10.5 2.3-21.8 12.8-25.2 10.5-3.4 21.8 2.3 25.2 12.8 3.4 10.6-2.3 21.8-12.8 25.2z"/></symbol><symbol id="icon_heart" viewBox="0 0 64 64" xml:space="preserve" fill="#000"><path fill="#F76D57" d="M58.714 29.977s-.612.75-1.823 1.961L33.414 55.414c-.391.391-.902.586-1.414.586s-1.023-.195-1.414-.586L7.109 31.937c-1.211-1.211-1.823-1.961-1.823-1.961C3.245 27.545 2 24.424 2 21 2 13.268 8.268 7 16 7c3.866 0 7.366 1.566 9.899 4.101l.009-.009 4.678 4.677a2 2 0 0 0 2.828 0l4.678-4.677.009.009A13.948 13.948 0 0 1 48 7c7.732 0 14 6.268 14 14 0 3.424-1.245 6.545-3.286 8.977z"/><path fill="#F76D57" d="M58.714 29.977s-.612.75-1.823 1.961L33.414 55.414c-.391.391-.902.586-1.414.586s-1.023-.195-1.414-.586L7.109 31.937c-1.211-1.211-1.823-1.961-1.823-1.961C3.245 27.545 2 24.424 2 21 2 13.268 8.268 7 16 7c3.866 0 7.366 1.566 9.899 4.101l.009-.009 4.678 4.677a2 2 0 0 0 2.828 0l4.678-4.677.009.009A13.948 13.948 0 0 1 48 7c7.732 0 14 6.268 14 14 0 3.424-1.245 6.545-3.286 8.977z"/><path d="M48 5a15.946 15.946 0 0 0-11.313 4.687l-3.979 3.961a.999.999 0 0 1-1.414 0s-3.971-3.97-3.979-3.961A15.954 15.954 0 0 0 16 5C7.163 5 0 12.163 0 21c0 3.338 1.024 6.436 2.773 9 0 0 .734 1.164 1.602 2.031l24.797 24.797C29.953 57.609 30.977 58 32 58s2.047-.391 2.828-1.172l24.797-24.797c.867-.867 1.602-2.031 1.602-2.031A15.916 15.916 0 0 0 64 21c0-8.837-7.163-16-16-16zm10.714 24.977s-.612.75-1.823 1.961L33.414 55.414c-.391.391-.902.586-1.414.586s-1.023-.195-1.414-.586L7.109 31.937c-1.211-1.211-1.823-1.961-1.823-1.961C3.245 27.545 2 24.424 2 21 2 13.268 8.268 7 16 7c3.866 0 7.366 1.566 9.899 4.101l.009-.009 4.678 4.677a2 2 0 0 0 2.828 0l4.678-4.677.009.009A13.948 13.948 0 0 1 48 7c7.732 0 14 6.268 14 14 0 3.424-1.245 6.545-3.286 8.977z"/><path d="M48 11a1 1 0 1 0 0 2 8 8 0 0 1 8 8 1 1 0 1 0 2 0c0-5.522-4.478-10-10-10z"/></symbol><symbol id="icon_github" viewBox="0 0 32 32"><path d="M16 .395c-8.836 0-16 7.163-16 16 0 7.069 4.585 13.067 10.942 15.182.8.148 1.094-.347 1.094-.77 0-.381-.015-1.642-.022-2.979-4.452.968-5.391-1.888-5.391-1.888-.728-1.849-1.776-2.341-1.776-2.341-1.452-.993.11-.973.11-.973 1.606.113 2.452 1.649 2.452 1.649 1.427 2.446 3.743 1.739 4.656 1.33.143-1.034.558-1.74 1.016-2.14-3.554-.404-7.29-1.777-7.29-7.907 0-1.747.625-3.174 1.649-4.295-.166-.403-.714-2.03.155-4.234 0 0 1.344-.43 4.401 1.64a15.353 15.353 0 0 1 4.005-.539c1.359.006 2.729.184 4.008.539 3.054-2.07 4.395-1.64 4.395-1.64.871 2.204.323 3.831.157 4.234 1.026 1.12 1.647 2.548 1.647 4.295 0 6.145-3.743 7.498-7.306 7.895.574.497 1.085 1.47 1.085 2.963 0 2.141-.019 3.864-.019 4.391 0 .426.288.925 1.099.768C27.421 29.457 32 23.462 32 16.395c0-8.837-7.164-16-16-16z"/></symbol><symbol id="top_icon" viewBox="0 0 32 32"><path d="m27.414 12.586-10-10a2 2 0 0 0-2.828 0l-10 10a2 2 0 1 0 2.828 2.828L14 8.828V28a2 2 0 1 0 4 0V8.828l6.586 6.586c.39.39.902.586 1.414.586s1.024-.195 1.414-.586a2 2 0 0 0 0-2.828z"/></symbol></defs></svg>