<svg width="32" height="32" viewBox="0 0 32 32" fill="none" xmlns="http://www.w3.org/2000/svg">
<defs>
<symbol id="logo_icon" viewBox="0 0 32 32">
    <path d="M26.4265 2.66675H5.57317C3.96786 2.66675 2.6665 3.96811 2.6665 5.57341V26.4267C2.6665 28.0321 3.96786 29.3334 5.57317 29.3334H26.4265C28.0318 29.3334 29.3332 28.0321 29.3332 26.4267V5.57341C29.3332 3.96811 28.0318 2.66675 26.4265 2.66675Z" stroke="white" stroke-width="2" stroke-linecap="round" stroke-linejoin="round"/>
    <path d="M9.3335 2.66675V29.3334" stroke="white" stroke-width="2" stroke-linecap="round" stroke-linejoin="round"/>
    <path d="M22.6665 2.66675V29.3334" stroke="white" stroke-width="2" stroke-linecap="round" stroke-linejoin="round"/>
    <path d="M2.6665 16H29.3332" stroke="white" stroke-width="2" stroke-linecap="round" stroke-linejoin="round"/>
    <path d="M2.6665 9.33325H9.33317" stroke="white" stroke-width="2" stroke-linecap="round" stroke-linejoin="round"/>
    <path d="M2.6665 22.6667H9.33317" stroke="white" stroke-width="2" stroke-linecap="round" stroke-linejoin="round"/>
    <path d="M22.6665 22.6667H29.3332" stroke="white" stroke-width="2" stroke-linecap="round" stroke-linejoin="round"/>
    <path d="M22.6665 9.33325H29.3332" stroke="white" stroke-width="2" stroke-linecap="round" stroke-linejoin="round"/>
</symbol>
<symbol id="search_icon" viewBox="0 0 32 32">
<path fill="none" stroke-linejoin="round" stroke-linecap="round" stroke-miterlimit="4" stroke-width="2.6667" d="M14.667 25.333c5.891 0 10.667-4.776 10.667-10.667s-4.776-10.667-10.667-10.667c-5.891 0-10.667 4.776-10.667 10.667s4.776 10.667 10.667 10.667z"></path>
<path fill="none" stroke-linejoin="round" stroke-linecap="round" stroke-miterlimit="4" stroke-width="2.6667" d="M28 28.001l-5.8-5.8"></path>
</symbol>
<symbol id="light_btn" viewBox="0 0 512 512" xml:space="preserve" fill="#000000">
 <path class="st0" d="M90.734,210.977c22.547,0.016,43.172-9.203,57.922-24c14.781-14.734,24-35.359,24-57.906 s-9.219-43.188-24-57.938c-14.75-14.781-35.375-24-57.922-23.984c-22.547-0.016-43.172,9.203-57.922,24 c-14.781,14.734-24,35.375-23.984,57.922c-0.016,22.547,9.203,43.156,23.984,57.906C47.563,201.773,68.188,210.992,90.734,210.977z M66.109,104.43c6.375-6.344,14.938-10.188,24.625-10.203c9.703,0.016,18.25,3.859,24.641,10.203 c6.328,6.375,10.188,14.938,10.188,24.641c0,9.688-3.859,18.234-10.188,24.625c-6.391,6.328-14.938,10.188-24.641,10.203 c-9.688-0.016-18.25-3.875-24.625-10.203c-6.344-6.391-10.188-14.938-10.203-24.625C55.922,119.367,59.766,110.805,66.109,104.43z"></path> <path class="st0" d="M270.219,210.977c22.547,0.016,43.172-9.203,57.922-24c14.781-14.75,24-35.359,23.984-57.906 c0.016-22.547-9.203-43.188-23.984-57.922c-14.75-14.797-35.375-24.016-57.922-24c-22.531-0.016-43.172,9.203-57.922,23.984 c-14.797,14.75-24,35.391-23.984,57.938c-0.016,22.547,9.203,43.172,23.984,57.906 C227.047,201.773,247.688,210.992,270.219,210.977z M245.594,104.43c6.375-6.344,14.938-10.188,24.625-10.203 c9.688,0.016,18.25,3.859,24.625,10.203c6.344,6.375,10.188,14.938,10.203,24.641c-0.016,9.688-3.859,18.234-10.203,24.625 c-6.375,6.328-14.938,10.188-24.625,10.203c-9.688-0.016-18.25-3.875-24.625-10.203c-6.344-6.391-10.188-14.938-10.203-24.625 C235.406,119.367,239.25,110.805,245.594,104.43z"></path> <path class="st0" d="M313.047,224.195H45.953c-12.625-0.016-24.234,5.172-32.5,13.453C5.172,245.914,0,257.523,0,270.148v148.75 c0,12.625,5.172,24.25,13.453,32.5c8.266,8.281,19.875,13.469,32.5,13.453h267.094c12.609,0.016,24.234-5.172,32.484-13.453 c8.297-8.25,13.484-19.875,13.469-32.5v-148.75c0.016-12.625-5.172-24.234-13.469-32.5 C337.281,229.367,325.656,224.18,313.047,224.195z M317.813,418.898c-0.031,1.391-0.516,2.453-1.406,3.375 c-0.922,0.891-1.984,1.375-3.359,1.391H45.953c-1.391-0.016-2.438-0.5-3.359-1.391c-0.891-0.922-1.375-1.984-1.406-3.375v-148.75 c0.031-1.375,0.516-2.438,1.406-3.375c0.922-0.875,1.969-1.375,3.359-1.391h267.094c1.375,0.016,2.438,0.516,3.359,1.391 c0.891,0.938,1.375,2,1.406,3.375V418.898z"></path> <path class="st0" d="M493.875,236.414c-5.828-3.516-12.531-5.359-19.125-5.359c-6.063,0-12.063,1.484-17.609,4.422l-73.734,39.313 v46.719l87.406-46.594v139.297l-87.406-46.672v46.734l73.734,39.297c5.547,2.953,11.547,4.422,17.609,4.422 c6.594,0,13.297-1.766,19.188-5.297C505.125,445.93,512,433.805,512,420.68V268.367C512,255.242,505.125,243.117,493.875,236.414z"></path>
 </symbol>
<symbol id="night_btn" viewBox="0 0 512 512" xml:space="preserve" fill="#000000">
<path class="st0" d="M289.375,40.703c-40.906,0-76.25,23.781-93,58.266c-16.75-34.484-52.109-58.266-93.016-58.266 C46.266,40.703,0,86.969,0,144.063c0,57.078,46.266,103.328,103.359,103.328h186.016c57.094,0,103.359-46.25,103.359-103.328 C392.734,86.969,346.469,40.703,289.375,40.703z M103.359,183.141c-21.594,0-39.094-17.516-39.094-39.078 c0-21.594,17.5-39.094,39.094-39.094c21.563,0,39.063,17.5,39.063,39.094C142.422,165.625,124.922,183.141,103.359,183.141z M289.375,183.141c-21.578,0-39.063-17.516-39.063-39.078c0-21.594,17.484-39.094,39.063-39.094 c21.594,0,39.094,17.5,39.094,39.094C328.469,165.625,310.969,183.141,289.375,183.141z"></path> <path class="st0" d="M332.125,271H53.828c-11.094,0-20.063,8.969-20.063,20.047v160.188c0,11.078,8.969,20.063,20.063,20.063 h278.297c11.094,0,20.063-8.984,20.063-20.063V291.047C352.188,279.969,343.219,271,332.125,271z"></path> <path class="st0" d="M504.344,306.688c-4.844-3.797-11.172-5.156-17.156-3.719l-97.844,23.844c-9,2.188-15.328,10.25-15.328,19.5 v47.484c0,9.25,6.328,17.297,15.328,19.484l97.844,23.859c5.984,1.438,12.313,0.078,17.156-3.719 c4.828-3.813,7.656-9.625,7.656-15.781v-95.188C512,316.313,509.172,310.5,504.344,306.688z"></path>
</symbol>
<symbol id="loader__icon" xmlns="http://www.w3.org/2000/svg" viewBox="0 0 243.6 205"> 
<path class="st0" d="M132.7 190.5c-1.4 0-2.5-1.1-2.5-2.5 0-1.4 1.1-2.5 2.5-2.5 9.5 0 18.8-3.7 25.8-7 2.5-1.2 5.1-2.4 7.5-3.6 5.8-2.9 11.9-5.9 18.2-8 10.6-3.6 22-4.8 32.8-3.4 10.7 1.4 19.6 5.3 25.7 11.2 1 0.9 1 2.5 0 3.5 -0.9 1-2.5 1-3.5 0 -6.8-6.6-16.2-9-22.9-9.9 -10.1-1.3-20.7-0.2-30.6 3.1 -6 2-11.9 4.9-17.6 7.8 -2.5 1.2-5.1 2.5-7.6 3.7C153.1 186.5 143.2 190.5 132.7 190.5 132.7 190.5 132.7 190.5 132.7 190.5z"/><path class="film st0" d="M121.8 13.5c-49.2 0-89 39.8-89 89s39.8 89 89 89 89-39.8 89-89S171 13.5 121.8 13.5zM121.8 32.2c11 0 20 8.9 20 20 0 11-8.9 20-20 20s-20-8.9-20-20C101.8 41.1 110.8 32.2 121.8 32.2zM54.9 80.8c3.4-10.5 14.7-16.2 25.2-12.8 10.5 3.4 16.2 14.7 12.8 25.2 -3.4 10.5-14.7 16.2-25.2 12.8C57.3 102.5 51.5 91.3 54.9 80.8zM108.4 155c-6.5 8.9-19 10.9-27.9 4.4 -8.9-6.5-10.9-19-4.4-27.9 6.5-8.9 19-10.9 27.9-4.4C112.9 133.6 114.8 146.1 108.4 155zM121.8 112.9c-5.8 0-10.4-4.7-10.4-10.4 0-5.8 4.7-10.4 10.4-10.4 5.8 0 10.4 4.7 10.4 10.4C132.2 108.3 127.6 112.9 121.8 112.9zM163.1 159.4c-8.9 6.5-21.4 4.5-27.9-4.4 -6.5-8.9-4.5-21.4 4.4-27.9 8.9-6.5 21.4-4.5 27.9 4.4C174 140.4 172.1 152.9 163.1 159.4zM175.9 105.9c-10.5 3.4-21.8-2.3-25.2-12.8 -3.4-10.5 2.3-21.8 12.8-25.2 10.5-3.4 21.8 2.3 25.2 12.8C192.1 91.3 186.4 102.5 175.9 105.9z"/>
</symbol>
</defs>
</svg>
